<svg xmlns="http://www.w3.org/2000/svg" id="Layer_1" viewBox="0 0 466.3 73.5"><defs><style>      .st0 {        fill: #000;      }    </style></defs><g><path class="st0" d="M354.1,31.9c1.4,0,2.6-.7,3.6-2,.9-1.2,1.4-2.5,1.4-3.8,0-2.4-1.2-3.7-3.3-3.7s-2.6.6-3.6,1.9c-.9,1.2-1.4,2.5-1.4,3.9,0,3.2,2.1,3.7,3.3,3.7Z"></path><path class="st0" d="M454.7,23.9h-35.6q1.9-4.8,1.9-5c0-1.3-1.2-1.9-3.6-1.9s-2.7.4-3.2,1.4c-1,2.3-1.7,4.2-2.2,5.5h-9.6c-2.3,0-3.5.7-3.5,1.9s1.2,1.9,3.5,1.9h8.3c-3.1,9.1-4.6,15.4-4.6,19.2s.3,3.6.8,4.9c-.9.6-2.1.9-3.6.9h-15.6c-3.3,0-4-2.7-3.9-5.8,0-5.3,2.6-14.5,7.7-27.4.1-.2.1-.4.1-.6,0-1.3-1.2-1.9-3.6-1.9s-2.7.4-3.2,1.3c-1.7,3.3-3.4,7.8-5.1,13.5-2,6.5-3,11.6-3,15.2s.2,3.1.6,4.3c-.9,1-2.5,1.5-4.8,1.5h-14.2c-1.4,0-2.4-.7-3.1-2.2-.6-1.2-.9-2.7-.9-4.5s.2-3.6.6-5.6c.3-1.7.1-3.1-.6-4-.5-.7-1.3-1-2.3-1s-2.8,0-3.1,1.4v.3c-1.2,3.7-2.4,6.8-3.6,9-2.1,4.1-4.2,6.2-6.2,6.5h-16.4c1-.9,1.8-2.2,2.5-3.6,1-2.1,1.5-4.2,1.5-6.3,0-4.9-4.1-7.3-12.1-7.3s-6.2.5-8.6,1.4c1.5-5.1,3.5-10.9,6-17.3.1-.2.1-.4.1-.6,0-1.3-1.2-1.9-3.5-1.9s-2.7.4-3.2,1.3c-1.6,3.1-3.3,7.9-5.1,14-1.9,6.6-2.9,11.5-2.9,14.5s.2,2.9.6,4.1c-1.1,1.2-2.6,1.8-4.8,1.8h-11c-1.5,0-2.8-.7-3.9-2.1-1.1-1.3-1.6-2.7-1.6-4.2,0-2.5.6-5.5,1.6-8.7.1-.2.1-.4.1-.7,0-1.3-1.2-1.9-3.4-1.9h-10c.5-1.8.5-2.1.5-2.2,0-.9-.6-2-3.4-2s-3.1.6-3.5,1.8c-.4,1.7-.7,3-.9,3.8-1.6,5.6-4.1,10.5-7.5,14.4-.9,1-2.8,1.7-5,1.7h-22.3c-2.2,0-3.9-.3-4.7-1,5.4-1.7,10.8-3.6,16.1-5.6,3.5-1.4,5.2-2.9,5.2-4.8s-.8-4.3-4.8-5.3c-1.4-.4-3.8-.5-7.3-.5-6.7,0-11.5,1.9-14.2,5.6-1.8,2.4-2.7,5-2.7,8s.2,2.2.6,3.1c-.8.4-2.2.6-4.7.6h-11.2c-1.2,0-2.2-.8-2.6-1.9-.3-.9-.4-2.2-.4-3.9,0-5.3,2.6-14.5,7.7-27.4.1-.2.1-.4.1-.6,0-1.3-1.2-1.9-3.6-1.9s-2.7.4-3.2,1.4c-.8,1.8-1.3,3.2-1.6,4.1-1.1,3.1-2.3,6.5-3.4,10.2-.5,1.8-.9,3.1-1.2,3.8-1.8-.7-4.3-1-7.5-1-4.7,0-8.6,1-11.5,2.9-2.3,1.5-3.9,4-4.9,7.6-.4,1.4-.6,2.5-.6,3.4s.1,1.6.4,2.2h-.1c-.8.9-2.1,1.3-4,1.3h-12.8c-.3,0-.6,0-1-.6-.2-.4-.4-.8-.4-1.2,0-.9.2-2.2.7-4,.5-1.9.8-3.3.8-4.3,0-4.8-4-7.3-11.8-7.3s-4.7.3-6.6.8c-.8-.8-2.4-.8-3.1-.8-2,0-3.2.6-3.5,1.8l-3.4,12.5c-1.1,3.1-3.2,3.1-5.5,3.1h-8.4c-1,0-3.1-.7-3.1-3.8s.8-7.6,2.4-12.3c0-.2,0-.4,0-.6,0-.9-.6-2.1-3.5-2.1s-2.3.3-2.8.9c0,.2-.3.5-.8,1.7-1.9-.8-4.6-1.2-7.8-1.2-4.7,0-8.6,1-11.5,2.9-2.3,1.5-3.9,4-4.9,7.6-.4,1.4-.6,2.5-.6,3.4,0,4.9,4.1,7.3,12.2,7.3s9-1,11.7-3c1.4,2,3.6,3,6.6,3h17.7c2.3,0,3.8-1.5,4.4-3.9l1.4-5.3c.8-2.7,1.8-4.7,2.9-5.9,1.5-1.6,3.7-2.4,6.6-2.4s4.5,2,4.5,3.4-.3,2.2-.8,4c-.5,1.9-.8,3.3-.8,4.4,0,2.3.9,3.9,2.7,4.8,1.2.6,2.9.9,5.3.9h12.9c3.2,0,5.8-.5,7.8-1.4,2,.9,4.7,1.4,8.3,1.4,5.2,0,9.2-1,11.9-3.1.8,1.1,1.7,1.9,2.6,2.3,1,.5,2.4.8,4.2.8h13.2c4,0,6.5,0,8.4-1,1.7.6,4.1,1,7.2,1h24.6c4.4,0,7.6-1.3,9.7-3.9,3.3-4.1,5.8-8.7,7.4-13.6h7c-.7,2.4-1,4.7-1,6.9,0,4,1.3,6.9,3.8,8.6,2,1.4,5.1,2,9.2,2h8.7c3,0,5.3-.2,6.8-.5,1.1-.2,2-.6,2.8-1,1.7,1,4,1.5,6.8,1.5h30.8c6.8,0,9.9-4.7,9.9-4.7,1.7,3.1,4.8,4.7,9.2,4.7h14.6c3.1,0,5.7-.4,7.7-1.3,1.5,1,3.2,1.3,4.8,1.3h16.5c2.8,0,5-.2,6.5-.5.6,0,1.2-.3,1.8-.6,1.4.8,3,1.1,4.6,1.1h13.3c6.3,0,10.3-1.3,12.2-4,.1-.3.2-.5.2-.7,0-1.8-2.8-1.8-3.7-1.8-1.4,0-2.4.4-3,1.1-.9,1-2.4,1.5-4.6,1.5h-11.2c-3.5,0-4.7-3.7-4.6-5.8,0-3.8,1.5-10.3,4.6-19.2h37c2.3,0,3.5-.7,3.5-1.9s-1-2.1-3.4-2.1ZM93.1,45.9c-1.3,4.6-4.5,6.9-9.5,6.9s-5.3-1.9-5.3-3.3.2-1.8.6-3.2c1.3-4.7,4.4-6.9,9.6-6.9s5.3,1.9,5.3,3.4c-.2.7-.3,1.8-.7,3.1ZM184.2,45.9c-1.3,4.6-4.5,6.9-9.5,6.9s-5.3-1.9-5.3-3.3.2-1.8.6-3.2c1.3-4.7,4.4-6.9,9.6-6.9s5.3,1.9,5.3,3.4c-.1.7-.3,1.8-.7,3.1ZM218.8,43.7c1.5-2.9,4.5-4.4,9-4.4s4.7.7,4.7,2.1-.5,1-1.4,1.4c-2.6,1.1-7.2,2.7-13.6,4.8.2-1.4.7-2.7,1.3-3.9ZM319.3,45.9c-.5,1.7-1.6,3.2-3.2,4.5-1.9,1.6-4,2.4-6.4,2.4-5.3,0-5.3-2.4-5.3-3.2s.2-2,.6-3.4c1.3-4.7,4.4-6.9,9.5-6.9s5.3,1.9,5.3,3.4c.1,1-.1,2-.5,3.2Z"></path></g><path class="st0" d="M178.5,17.4c-.4-.4-1.2-.6-2.4-.6h-84.3v-.2.2h0c-1.9,0-3.6.1-5.2.4-1.6.3-3.1.7-4.8,1.3-3.2,1.2-6.2,3-9,5.3-4.3,3.4-8.3,7.6-12.3,12.1-4,4.4-8,9-12,13.1-.8.8-1.6,1.5-2.3,2-.3.2-.8.6-1.5.6s-.4,0-.6,0h0c-.2,0-.4-.2-.5-.5-.1-.2-.2-.5-.2-.8h0c0-.7.3-1.6.7-2.8.7-1.8,1.8-4.5,2.9-7.1,1.1-2.6,2.1-5,2.7-6.3.9-2.2,1.5-4.6,1.5-6.9s-.2-2.6-.6-3.8c-.3-.9-.8-1.8-1.5-2.6-1-1.2-2.3-2.2-3.9-2.8-1.6-.6-3.4-1-5.5-1h-21.6c-1.3,0-2.4.8-2.9,1.9l-.8,1.8v.2c0,.3.2.5.5.5h24.6c3.8,0,5.7,1.9,5.7,3.4H13.3c-.4,0-.8.2-.9.6l-1.3,3c0,.1-.1.2-.1.3,0,.4.3.7.7.7h33.7v.3c-.3.7-.5,1.5-.8,2.3,0,.2-.2.4-.3.7v.2H9.3l-.8,1.9c0,.2-.2.5-.2.7,0,1,.8,1.9,1.9,1.9h32v.3c-.2.2-.2.3-.3.5-1.1,2.6-2.2,5.3-2.9,7.3-.6,1.6-1,3.2-1,4.7h0c0,1.3.3,2.6,1,3.8h0c.7,1.2,1.8,2.1,3.1,2.6h0c.8.3,1.7.5,2.6.5h0c.9,0,1.8-.2,2.5-.5,1.1-.4,2.1-1,2.9-1.7.8-.7,1.6-1.4,2.3-2.1,5.6-5.7,10.9-12.1,16.1-17.5,2.6-2.7,5.2-5.2,7.7-7.2s5.1-3.5,7.5-4.4c1.5-.5,2.6-.9,3.8-1.1,1.2-.2,2.5-.3,4.3-.3h81.7c1.3,0,2.4-.2,3.2-.6.9-.4,1.5-1,2-1.8.2-.4.3-.8.3-1.2,0-.4-.1-.8-.5-1.2Z"></path></svg>